<svg width="60" height="60" viewBox="0 0 60 60" fill="none" xmlns="http://www.w3.org/2000/svg">
<g clip-path="url(#clip0_358_13)">
<path d="M0 24L36.5 34L46 60H0V24Z" fill="#DAE9FD"/>
<path d="M53.9857 37.4587C54.7203 35.1018 55.1163 32.5958 55.1163 29.9987C55.1163 27.0716 54.5877 24.2706 53.6623 21.655C55.3783 20.7528 56.5591 18.9714 56.5591 16.8971C56.5591 13.9152 54.1422 11.4983 51.1603 11.4983C49.9795 11.4983 48.8965 11.8877 48.0101 12.5292C44.6368 9.05231 40.2742 6.55091 35.377 5.47775C35.2582 2.60015 32.9067 0.300049 30 0.300049C27.0934 0.300049 24.7411 2.60279 24.6237 5.47907C19.7271 6.55223 15.3665 9.05363 11.9926 12.5305C11.1042 11.8883 10.0218 11.4996 8.84174 11.4996C5.8592 11.4996 3.44228 13.9165 3.44228 16.8984C3.44228 18.9728 4.62434 20.7515 6.33902 21.6563C5.41436 24.2719 4.88438 27.0729 4.88438 30.0001C4.88438 32.5972 5.28104 35.1025 6.01496 37.46C5.24078 37.9372 4.56494 38.5952 4.09898 39.4499C2.6714 42.0701 3.63962 45.3497 6.25586 46.7746C7.91114 47.6788 9.82844 47.6188 11.3781 46.7944C14.8286 50.6191 19.4189 53.3832 24.6243 54.5243C24.7431 57.3999 27.0947 59.7001 30 59.7001C32.9073 59.7001 35.2556 57.4 35.377 54.5224C40.5838 53.3812 45.1728 50.6171 48.6232 46.7924C50.1716 47.6168 52.0882 47.6768 53.7448 46.7726C56.3604 45.3484 57.33 42.0682 55.9017 39.448C55.4344 38.5939 54.7606 37.9352 53.9857 37.4587ZM53.5897 29.9987C53.5897 32.3741 53.2274 34.6656 52.5714 36.8304C51.2771 36.4799 49.8515 36.5981 48.5764 37.2897C47.6689 37.7847 46.9752 38.5107 46.4961 39.3443L34.9395 32.1681C35.2305 31.5015 35.3982 30.7723 35.3982 29.9987C35.3982 29.2265 35.2305 28.4972 34.9381 27.8333L47.0221 20.3284C48.0121 21.521 49.4892 22.2972 51.1603 22.2972C51.5292 22.2972 51.8863 22.2596 52.2328 22.1903C53.0974 24.6382 53.5897 27.2591 53.5897 29.9987ZM46.9165 13.5957C46.2037 14.5118 45.7628 15.647 45.7628 16.8977C45.7628 17.658 45.9238 18.3801 46.2076 19.0361L34.1171 26.5449C33.2842 25.551 32.1087 24.8692 30.7643 24.6785V11.0217C32.9416 10.7122 34.6906 9.11369 35.2193 7.01225C39.7515 8.04053 43.7894 10.3697 46.9165 13.5957ZM24.7807 7.01225C25.3087 9.11369 27.0577 10.7122 29.2364 11.0217V24.6778C27.892 24.8686 26.7185 25.5503 25.8836 26.543L13.7964 19.0361C14.0808 18.3801 14.2405 17.658 14.2405 16.8977C14.2405 15.647 13.7983 14.5105 13.0836 13.5957C16.2126 10.3697 20.2485 8.04053 24.7807 7.01225ZM6.4103 29.9987C6.4103 27.2591 6.90398 24.6382 7.7666 22.1903C8.11442 22.2596 8.47346 22.2972 8.84108 22.2972C10.5148 22.2972 11.9913 21.5204 12.9806 20.3258L25.0632 27.8286C24.7702 28.4952 24.6012 29.2265 24.6012 29.9987C24.6012 30.7723 24.7689 31.5042 25.0619 32.1695L13.506 39.347C13.0261 38.5114 12.3325 37.7847 11.423 37.2897C10.1505 36.5981 8.72294 36.4793 7.42736 36.8304C6.77132 34.6656 6.4103 32.3741 6.4103 29.9987ZM12.5998 45.8731C12.9747 45.5061 13.3185 45.0995 13.5819 44.6164C14.2458 43.3981 14.3719 42.0431 14.0749 40.791L25.8836 33.4558C26.7185 34.4498 27.8913 35.1316 29.2371 35.3216V48.9783C27.0584 49.2892 25.3074 50.8877 24.7801 52.9872C20.0063 51.9041 15.7915 49.3691 12.5998 45.8731ZM35.2193 52.9872C34.6933 50.8871 32.9416 49.2885 30.7643 48.9783V35.321C32.1087 35.1309 33.2842 34.4478 34.1184 33.4532L45.9252 40.7878C45.6275 42.0391 45.7549 43.3974 46.4188 44.6157C46.6828 45.0989 47.0234 45.5061 47.3996 45.8724C44.2078 49.3691 39.9931 51.9041 35.2193 52.9872Z" fill="#2F2AFF"/>
</g>
<defs>
<clipPath id="clip0_358_13">
<rect width="60" height="60" fill="white"/>
</clipPath>
</defs>
</svg>
