<svg width="160" height="30" viewBox="0 0 160 30" fill="none" xmlns="http://www.w3.org/2000/svg">
<path fill-rule="evenodd" clip-rule="evenodd" d="M10.0034 12.1392C10.5588 12.1392 11.0083 12.5916 11.0083 13.1513V15.8483C11.0083 21.9949 15.9529 26.9772 22.0503 26.9772C28.1491 26.9772 33.0923 21.9949 33.0923 15.8483V13.1513C33.0923 12.5916 33.5418 12.1392 34.0972 12.1392C34.6511 12.1392 35.1006 12.5916 35.1006 13.1513V15.8483C35.1006 23.1129 29.257 29 22.0503 29C14.8436 29 9 23.1129 9 15.8483V13.1513C9 12.5916 9.44951 12.1392 10.0034 12.1392Z" fill="#1D4ED7"/>
<path fill-rule="evenodd" clip-rule="evenodd" d="M13.0137 9.10612C13.0137 4.076 17.0593 0 22.0474 0H22.0488C27.0369 0 31.0825 4.076 31.0825 9.10612V15.8487C31.0825 20.8774 27.0369 24.9548 22.0474 24.9548C17.0593 24.9548 13.0137 20.8774 13.0137 15.8487V9.10612ZM17.6985 6.35571C17.2046 6.35571 16.8043 6.75605 16.8043 7.2499C16.8043 7.74374 17.2046 8.14408 17.6985 8.14408L22.0486 8.14408C22.5424 8.14408 22.9428 7.74374 22.9428 7.2499C22.9428 6.75605 22.5424 6.35571 22.0486 6.35571L17.6985 6.35571ZM16.8043 11.6004C16.8043 11.1066 17.2046 10.7063 17.6985 10.7063H24.9486C25.4425 10.7063 25.8428 11.1066 25.8428 11.6004C25.8428 12.0943 25.4425 12.4946 24.9486 12.4946H17.6985C17.2046 12.4946 16.8043 12.0943 16.8043 11.6004ZM17.6985 15.0556C17.2046 15.0556 16.8043 15.456 16.8043 15.9498C16.8043 16.4436 17.2046 16.844 17.6985 16.844H26.3987C26.8925 16.844 27.2929 16.4436 27.2929 15.9498C27.2929 15.456 26.8925 15.0556 26.3987 15.0556H17.6985Z" fill="#1D4ED7"/>
<path d="M65.0873 21.5H62.6467V10.7942L58.1141 21.5H55.9811L51.4896 10.8352V21.5H49.09V6.95893H52.3715L57.0886 18.0544L61.7442 6.95893H65.0873V21.5ZM69.9939 15.4087H74.8957C74.8546 14.2397 74.0753 13.1937 72.4345 13.1937C70.9374 13.1937 70.076 14.3423 69.9939 15.4087ZM75.1623 18.0134L77.1722 18.6492C76.6389 20.3925 75.0597 21.8076 72.6601 21.8076C69.9529 21.8076 67.5533 19.8387 67.5533 16.4547C67.5533 13.2963 69.8914 11.2043 72.414 11.2043C75.4904 11.2043 77.2952 13.2348 77.2952 16.3932C77.2952 16.7829 77.2542 17.111 77.2337 17.152H69.9324C69.9939 18.6697 71.1835 19.7567 72.6601 19.7567C74.0958 19.7567 74.8341 18.9979 75.1623 18.0134ZM81.1684 16.4752C81.1684 18.3826 82.2349 19.6542 83.8552 19.6542C85.4139 19.6542 86.5008 18.3621 86.5008 16.4547C86.5008 14.5474 85.4344 13.3578 83.8757 13.3578C82.317 13.3578 81.1684 14.5679 81.1684 16.4752ZM88.7979 6.65129V19.6747C88.7979 20.5771 88.8799 21.3359 88.9004 21.5H86.6239C86.5829 21.2744 86.5214 20.6181 86.5214 20.2079C86.0496 21.0488 85.0037 21.7461 83.5885 21.7461C80.7172 21.7461 78.7894 19.4901 78.7894 16.4752C78.7894 13.6039 80.7377 11.2454 83.5475 11.2454C85.2908 11.2454 86.1727 12.0452 86.4803 12.681V6.65129H88.7979ZM94.2649 21.5H91.9063V11.512H94.2649V21.5ZM91.5372 8.0049C91.5372 7.14351 92.2345 6.4462 93.0753 6.4462C93.9367 6.4462 94.6341 7.14351 94.6341 8.0049C94.6341 8.86629 93.9367 9.5431 93.0753 9.5431C92.2345 9.5431 91.5372 8.86629 91.5372 8.0049ZM96.4522 18.7928L98.5236 18.2185C98.6056 19.1209 99.2824 19.9208 100.554 19.9208C101.538 19.9208 102.051 19.3875 102.051 18.7723C102.051 18.239 101.682 17.8288 100.882 17.6648L99.4055 17.3366C97.6417 16.9469 96.7188 15.7984 96.7188 14.4243C96.7188 12.681 98.3185 11.2043 100.39 11.2043C103.179 11.2043 104.082 13.0092 104.246 13.9936L102.236 14.5679C102.154 13.9936 101.723 13.0707 100.39 13.0707C99.5491 13.0707 98.9543 13.6039 98.9543 14.2192C98.9543 14.7525 99.344 15.1421 99.9593 15.2652L101.477 15.5728C103.364 15.983 104.348 17.1315 104.348 18.6082C104.348 20.1259 103.118 21.8076 100.575 21.8076C97.6827 21.8076 96.5752 19.9208 96.4522 18.7928ZM109.066 25.3968H106.707V11.512H109.004V12.8656C109.497 12.0042 110.645 11.2864 112.183 11.2864C115.137 11.2864 116.798 13.5424 116.798 16.4957C116.798 19.4901 114.973 21.7461 112.101 21.7461C110.666 21.7461 109.579 21.1308 109.066 20.372V25.3968ZM114.419 16.4957C114.419 14.6294 113.332 13.3988 111.732 13.3988C110.174 13.3988 109.045 14.6294 109.045 16.4957C109.045 18.4031 110.174 19.6337 111.732 19.6337C113.311 19.6337 114.419 18.4031 114.419 16.4957ZM120.746 15.4087H125.648C125.607 14.2397 124.828 13.1937 123.187 13.1937C121.69 13.1937 120.828 14.3423 120.746 15.4087ZM125.915 18.0134L127.925 18.6492C127.391 20.3925 125.812 21.8076 123.413 21.8076C120.705 21.8076 118.306 19.8387 118.306 16.4547C118.306 13.2963 120.644 11.2043 123.166 11.2043C126.243 11.2043 128.048 13.2348 128.048 16.3932C128.048 16.7829 128.007 17.111 127.986 17.152H120.685C120.746 18.6697 121.936 19.7567 123.413 19.7567C124.848 19.7567 125.587 18.9979 125.915 18.0134ZM129.706 18.7928C129.706 17.0085 131.018 16.024 132.721 15.7779L135.284 15.3882C135.859 15.3062 136.023 15.0191 136.023 14.6704C136.023 13.8295 135.448 13.1527 134.136 13.1527C132.885 13.1527 132.187 13.9526 132.085 14.9575L129.911 14.4653C130.096 12.7425 131.654 11.2043 134.115 11.2043C137.192 11.2043 138.361 12.9476 138.361 14.937V19.9003C138.361 20.8027 138.463 21.3975 138.484 21.5H136.269C136.248 21.4385 136.166 21.0283 136.166 20.2284C135.695 20.9873 134.71 21.8076 133.09 21.8076C130.998 21.8076 129.706 20.372 129.706 18.7928ZM133.541 19.9413C134.874 19.9413 136.023 19.3055 136.023 17.3571V16.9059L133.418 17.2956C132.68 17.4187 132.085 17.8288 132.085 18.6492C132.085 19.326 132.598 19.9413 133.541 19.9413ZM150.589 11.512L146.487 15.7369L150.671 21.5H147.759L144.826 17.4187L143.595 18.7107V21.5H141.237V6.65129H143.595V15.5523L147.431 11.512H150.589Z" fill="#1D4ED7"/>
</svg>
