<svg width="60" height="60" viewBox="0 0 60 60" fill="none" xmlns="http://www.w3.org/2000/svg">
<g clip-path="url(#clip0_358_11)">
<path d="M24 46L34 9.5L60 -1.57361e-06L60 46L24 46Z" fill="#DAE9FD"/>
<path d="M34.1667 56.2083C33.7289 56.2083 33.363 56.0603 33.0691 55.7643C32.7731 55.4683 32.6251 55.1014 32.6251 54.6636C32.6251 54.2258 32.7731 53.8599 33.0691 53.5659C33.3651 53.272 33.731 53.125 34.1667 53.125H47.7396L36.6735 45.3273C36.3035 45.0744 36.0856 44.7517 36.0198 44.3591C35.954 43.9644 36.0352 43.5841 36.2634 43.2183C36.4895 42.8503 36.8061 42.6345 37.2131 42.5708C37.618 42.5029 38.0024 42.5821 38.3662 42.8082L49.5649 50.5288L44.8412 37.7916C44.6891 37.4031 44.7148 37.0146 44.9183 36.6261C45.1198 36.2355 45.4137 35.9663 45.8002 35.8183C46.1887 35.6661 46.5895 35.6918 47.0027 35.8953C47.4179 36.0968 47.7005 36.3907 47.8506 36.7772L52.3831 49.5113L55.9998 36.4288C56.1375 36.0403 56.375 35.7268 56.7121 35.4883C57.0492 35.2499 57.412 35.1985 57.8005 35.3342C58.189 35.4739 58.5158 35.7134 58.781 36.0526C59.0462 36.3918 59.1089 36.7535 58.9691 37.1379L54.1899 55.0213C54.0645 55.3851 53.8682 55.6739 53.601 55.8877C53.3338 56.1014 53.0224 56.2083 52.6667 56.2083H34.1667ZM1.79175 46.9583V43.875H4.87508V46.9583H1.79175ZM11.0417 46.9583V43.875H26.5108C26.4759 44.4197 26.4718 44.9387 26.4985 45.4321C26.5232 45.9254 26.554 46.4342 26.591 46.9583H11.0417ZM1.79175 34.625V31.5417H4.87508V34.625H1.79175ZM11.0417 34.625V31.5417H33.5624C32.9725 31.9692 32.4195 32.4399 31.9036 32.9538C31.3897 33.4677 30.8912 34.0248 30.4082 34.625H11.0417ZM1.79175 22.2917V19.2083H4.87508V22.2917H1.79175ZM11.0417 22.2917V19.2083H48.0417V22.2917H11.0417ZM1.79175 9.95833V6.875H4.87508V9.95833H1.79175ZM11.0417 9.95833V6.875H48.0417V9.95833H11.0417Z" fill="#2F2AFF"/>
</g>
<defs>
<clipPath id="clip0_358_11">
<rect width="60" height="60" fill="white"/>
</clipPath>
</defs>
</svg>
